<svg width="31" height="44" fill="none" xmlns="http://www.w3.org/2000/svg"><path d="M.76 34.955l7.04-4.076c1.853 3.026 4.262 5.25 8.522 5.25 3.583 0 5.867-1.792 5.867-4.262 0-2.965-2.346-4.015-6.299-5.743l-2.16-.927c-6.239-2.655-10.376-5.99-10.376-13.03 0-6.485 4.94-11.425 12.66-11.425 5.496 0 9.448 1.914 12.289 6.917l-6.732 4.322c-1.482-2.655-3.087-3.705-5.557-3.705-2.532 0-4.138 1.606-4.138 3.705 0 2.594 1.606 3.644 5.31 5.25l2.162.926c7.35 3.15 11.487 6.361 11.487 13.586 0 7.782-6.114 12.043-14.327 12.043-8.028 0-13.216-3.829-15.748-8.831" fill="#F5F6F7"/></svg>