<svg width="31" height="44" viewBox="0 0 31 44" fill="none" xmlns="http://www.w3.org/2000/svg">
<path d="M0.760254 34.9546L7.79986 30.8787C9.653 33.9051 12.0615 36.1281 16.3224 36.1281C19.9047 36.1281 22.1891 34.337 22.1891 31.8668C22.1891 28.9025 19.8425 27.8525 15.89 26.1239L13.7292 25.1969C7.49144 22.5419 3.35363 19.2071 3.35363 12.1668C3.35363 5.68239 8.29403 0.741699 16.0139 0.741699C21.5102 0.741699 25.4625 2.65632 28.303 7.65864L21.5715 11.9813C20.0893 9.32603 18.4841 8.27635 16.014 8.27635C13.482 8.27635 11.8762 9.88197 11.8762 11.9813C11.8762 14.5751 13.482 15.6253 17.1869 17.231L19.3482 18.1573C26.6972 21.3071 30.8351 24.518 30.8351 31.7432C30.8351 39.525 24.7213 43.7857 16.5079 43.7857C8.47964 43.7857 3.29201 39.9571 0.760402 34.9546" fill="#F5F6F7"/>
</svg>
